<svg id="visual" viewBox="0 0 2000 450" width="2000" height="450" xmlns="http://www.w3.org/2000/svg" xmlns:xlink="http://www.w3.org/1999/xlink" version="1.1"><rect x="0" y="0" width="2000" height="450" fill="#FF6F61"></rect><defs><linearGradient id="grad1_0" x1="77.5%" y1="0%" x2="100%" y2="100%"><stop offset="-38.8888888888889%" stop-color="#c62368" stop-opacity="1"></stop><stop offset="138.88888888888889%" stop-color="#c62368" stop-opacity="1"></stop></linearGradient></defs><defs><linearGradient id="grad1_1" x1="77.5%" y1="0%" x2="100%" y2="100%"><stop offset="-38.8888888888889%" stop-color="#c62368" stop-opacity="1"></stop><stop offset="138.88888888888889%" stop-color="#ff6f61" stop-opacity="1"></stop></linearGradient></defs><defs><linearGradient id="grad2_0" x1="0%" y1="0%" x2="22.5%" y2="100%"><stop offset="-38.8888888888889%" stop-color="#c62368" stop-opacity="1"></stop><stop offset="138.88888888888889%" stop-color="#c62368" stop-opacity="1"></stop></linearGradient></defs><defs><linearGradient id="grad2_1" x1="0%" y1="0%" x2="22.5%" y2="100%"><stop offset="-38.8888888888889%" stop-color="#ff6f61" stop-opacity="1"></stop><stop offset="138.88888888888889%" stop-color="#c62368" stop-opacity="1"></stop></linearGradient></defs><g transform="translate(2000, 0)"><path d="M0 405C-51.6 361.7 -103.1 318.5 -167.5 290.1C-231.9 261.8 -309 248.4 -350.7 202.5C-392.5 156.6 -398.7 78.3 -405 0L0 0Z" fill="#e64964"></path><path d="M0 202.5C-25.8 180.9 -51.6 159.2 -83.7 145.1C-115.9 130.9 -154.5 124.2 -175.4 101.3C-196.2 78.3 -199.4 39.2 -202.5 0L0 0Z" fill="#c62368"></path></g><g transform="translate(0, 450)"><path d="M0 -405C56.6 -370.5 113.3 -336 177 -306.6C240.7 -277.1 311.6 -252.8 350.7 -202.5C389.9 -152.2 397.5 -76.1 405 0L0 0Z" fill="#e64964"></path><path d="M0 -202.5C28.3 -185.3 56.6 -168 88.5 -153.3C120.4 -138.6 155.8 -126.4 175.4 -101.3C195 -76.1 198.7 -38.1 202.5 0L0 0Z" fill="#c62368"></path></g></svg>