<svg id="visual" viewBox="0 0 2000 450" width="2000" height="450" xmlns="http://www.w3.org/2000/svg" xmlns:xlink="http://www.w3.org/1999/xlink" version="1.1"><rect x="0" y="0" width="2000" height="450" fill="#C62368"></rect><defs><linearGradient id="grad1_0" x1="77.5%" y1="0%" x2="100%" y2="100%"><stop offset="-38.8888888888889%" stop-color="#ff6f61" stop-opacity="1"></stop><stop offset="138.88888888888889%" stop-color="#ff6f61" stop-opacity="1"></stop></linearGradient></defs><defs><linearGradient id="grad1_1" x1="77.5%" y1="0%" x2="100%" y2="100%"><stop offset="-38.8888888888889%" stop-color="#ff6f61" stop-opacity="1"></stop><stop offset="138.88888888888889%" stop-color="#f35c62" stop-opacity="1"></stop></linearGradient></defs><defs><linearGradient id="grad1_2" x1="77.5%" y1="0%" x2="100%" y2="100%"><stop offset="-38.8888888888889%" stop-color="#e64964" stop-opacity="1"></stop><stop offset="138.88888888888889%" stop-color="#f35c62" stop-opacity="1"></stop></linearGradient></defs><defs><linearGradient id="grad1_3" x1="77.5%" y1="0%" x2="100%" y2="100%"><stop offset="-38.8888888888889%" stop-color="#e64964" stop-opacity="1"></stop><stop offset="138.88888888888889%" stop-color="#d73666" stop-opacity="1"></stop></linearGradient></defs><defs><linearGradient id="grad1_4" x1="77.5%" y1="0%" x2="100%" y2="100%"><stop offset="-38.8888888888889%" stop-color="#c62368" stop-opacity="1"></stop><stop offset="138.88888888888889%" stop-color="#d73666" stop-opacity="1"></stop></linearGradient></defs><defs><linearGradient id="grad2_0" x1="0%" y1="0%" x2="22.5%" y2="100%"><stop offset="-38.8888888888889%" stop-color="#ff6f61" stop-opacity="1"></stop><stop offset="138.88888888888889%" stop-color="#ff6f61" stop-opacity="1"></stop></linearGradient></defs><defs><linearGradient id="grad2_1" x1="0%" y1="0%" x2="22.5%" y2="100%"><stop offset="-38.8888888888889%" stop-color="#f35c62" stop-opacity="1"></stop><stop offset="138.88888888888889%" stop-color="#ff6f61" stop-opacity="1"></stop></linearGradient></defs><defs><linearGradient id="grad2_2" x1="0%" y1="0%" x2="22.5%" y2="100%"><stop offset="-38.8888888888889%" stop-color="#f35c62" stop-opacity="1"></stop><stop offset="138.88888888888889%" stop-color="#e64964" stop-opacity="1"></stop></linearGradient></defs><defs><linearGradient id="grad2_3" x1="0%" y1="0%" x2="22.5%" y2="100%"><stop offset="-38.8888888888889%" stop-color="#d73666" stop-opacity="1"></stop><stop offset="138.88888888888889%" stop-color="#e64964" stop-opacity="1"></stop></linearGradient></defs><defs><linearGradient id="grad2_4" x1="0%" y1="0%" x2="22.5%" y2="100%"><stop offset="-38.8888888888889%" stop-color="#d73666" stop-opacity="1"></stop><stop offset="138.88888888888889%" stop-color="#c62368" stop-opacity="1"></stop></linearGradient></defs><g transform="translate(2000, 0)"><path d="M0 405C-76.5 397.7 -152.9 390.3 -202.5 350.7C-252.1 311.2 -274.7 239.3 -304 175.5C-333.2 111.7 -369.1 55.8 -405 0L0 0Z" fill="#cf2d67"></path><path d="M0 324C-61.2 318.1 -122.4 312.3 -162 280.6C-201.6 248.9 -219.8 191.5 -243.2 140.4C-266.6 89.3 -295.3 44.7 -324 0L0 0Z" fill="#de4065"></path><path d="M0 243C-45.9 238.6 -91.8 234.2 -121.5 210.4C-151.2 186.7 -164.8 143.6 -182.4 105.3C-199.9 67 -221.5 33.5 -243 0L0 0Z" fill="#ed5363"></path><path d="M0 162C-30.6 159.1 -61.2 156.1 -81 140.3C-100.8 124.5 -109.9 95.7 -121.6 70.2C-133.3 44.7 -147.6 22.3 -162 0L0 0Z" fill="#f96562"></path><path d="M0 81C-15.3 79.5 -30.6 78.1 -40.5 70.1C-50.4 62.2 -54.9 47.9 -60.8 35.1C-66.6 22.3 -73.8 11.2 -81 0L0 0Z" fill="#ff6f61"></path></g><g transform="translate(0, 450)"><path d="M0 -405C67.8 -389.9 135.7 -374.8 198 -342.9C260.3 -311.1 317.2 -262.5 350.7 -202.5C384.3 -142.5 394.7 -71.3 405 0L0 0Z" fill="#cf2d67"></path><path d="M0 -324C54.3 -311.9 108.5 -299.8 158.4 -274.4C208.3 -248.9 253.7 -210 280.6 -162C307.5 -114 315.7 -57 324 0L0 0Z" fill="#de4065"></path><path d="M0 -243C40.7 -233.9 81.4 -224.9 118.8 -205.8C156.2 -186.6 190.3 -157.5 210.4 -121.5C230.6 -85.5 236.8 -42.8 243 0L0 0Z" fill="#ed5363"></path><path d="M0 -162C27.1 -156 54.3 -149.9 79.2 -137.2C104.1 -124.4 126.9 -105 140.3 -81C153.7 -57 157.9 -28.5 162 0L0 0Z" fill="#f96562"></path><path d="M0 -81C13.6 -78 27.1 -75 39.6 -68.6C52.1 -62.2 63.4 -52.5 70.1 -40.5C76.9 -28.5 78.9 -14.3 81 0L0 0Z" fill="#ff6f61"></path></g></svg>