<svg id="visual" viewBox="0 0 2000 300" width="2000" height="300" xmlns="http://www.w3.org/2000/svg" xmlns:xlink="http://www.w3.org/1999/xlink" version="1.1"><rect x="0" y="0" width="2000" height="300" fill="#ffffff"></rect><path d="M0 99L55.5 110.5C111 122 222 145 333.2 145.7C444.3 146.3 555.7 124.7 666.8 115C778 105.3 889 107.7 1000 118C1111 128.3 1222 146.7 1333.2 151.8C1444.3 157 1555.7 149 1666.8 137.5C1778 126 1889 111 1944.5 103.5L2000 96L2000 301L1944.5 301C1889 301 1778 301 1666.8 301C1555.7 301 1444.3 301 1333.2 301C1222 301 1111 301 1000 301C889 301 778 301 666.8 301C555.7 301 444.3 301 333.2 301C222 301 111 301 55.5 301L0 301Z" fill="#fa7268"></path><path d="M0 144L55.5 153.5C111 163 222 182 333.2 191.8C444.3 201.7 555.7 202.3 666.8 189.7C778 177 889 151 1000 148.2C1111 145.3 1222 165.7 1333.2 168.5C1444.3 171.3 1555.7 156.7 1666.8 156.8C1778 157 1889 172 1944.5 179.5L2000 187L2000 301L1944.5 301C1889 301 1778 301 1666.8 301C1555.7 301 1444.3 301 1333.2 301C1222 301 1111 301 1000 301C889 301 778 301 666.8 301C555.7 301 444.3 301 333.2 301C222 301 111 301 55.5 301L0 301Z" fill="#e34c67"></path><path d="M0 254L55.5 245.2C111 236.3 222 218.7 333.2 211.3C444.3 204 555.7 207 666.8 212.7C778 218.3 889 226.7 1000 225.2C1111 223.7 1222 212.3 1333.2 204.8C1444.3 197.3 1555.7 193.7 1666.8 197.2C1778 200.7 1889 211.3 1944.5 216.7L2000 222L2000 301L1944.5 301C1889 301 1778 301 1666.8 301C1555.7 301 1444.3 301 1333.2 301C1222 301 1111 301 1000 301C889 301 778 301 666.8 301C555.7 301 444.3 301 333.2 301C222 301 111 301 55.5 301L0 301Z" fill="#c62368"></path></svg>