<svg id="visual" viewBox="0 0 2000 450" width="2000" height="450" xmlns="http://www.w3.org/2000/svg" xmlns:xlink="http://www.w3.org/1999/xlink" version="1.1"><rect x="0" y="0" width="2000" height="450" fill="#870242"></rect><path d="M0 179L55.5 168.7C111 158.3 222 137.7 333.2 120.3C444.3 103 555.7 89 666.8 86C778 83 889 91 1000 106.5C1111 122 1222 145 1333.2 158.5C1444.3 172 1555.7 176 1666.8 179.7C1778 183.3 1889 186.7 1944.5 188.3L2000 190L2000 451L1944.5 451C1889 451 1778 451 1666.8 451C1555.7 451 1444.3 451 1333.2 451C1222 451 1111 451 1000 451C889 451 778 451 666.8 451C555.7 451 444.3 451 333.2 451C222 451 111 451 55.5 451L0 451Z" fill="#fa7268"></path><path d="M0 197L55.5 189.8C111 182.7 222 168.3 333.2 163.3C444.3 158.3 555.7 162.7 666.8 180.3C778 198 889 229 1000 231.2C1111 233.3 1222 206.7 1333.2 200.2C1444.3 193.7 1555.7 207.3 1666.8 206.2C1778 205 1889 189 1944.5 181L2000 173L2000 451L1944.5 451C1889 451 1778 451 1666.8 451C1555.7 451 1444.3 451 1333.2 451C1222 451 1111 451 1000 451C889 451 778 451 666.8 451C555.7 451 444.3 451 333.2 451C222 451 111 451 55.5 451L0 451Z" fill="#eb5967"></path><path d="M0 304L55.5 304C111 304 222 304 333.2 301.7C444.3 299.3 555.7 294.7 666.8 291.3C778 288 889 286 1000 286.2C1111 286.3 1222 288.7 1333.2 289C1444.3 289.3 1555.7 287.7 1666.8 279.5C1778 271.3 1889 256.7 1944.5 249.3L2000 242L2000 451L1944.5 451C1889 451 1778 451 1666.8 451C1555.7 451 1444.3 451 1333.2 451C1222 451 1111 451 1000 451C889 451 778 451 666.8 451C555.7 451 444.3 451 333.2 451C222 451 111 451 55.5 451L0 451Z" fill="#da3f67"></path><path d="M0 316L55.5 320.7C111 325.3 222 334.7 333.2 342.8C444.3 351 555.7 358 666.8 364.5C778 371 889 377 1000 372.8C1111 368.7 1222 354.3 1333.2 351.8C1444.3 349.3 1555.7 358.7 1666.8 356.3C1778 354 1889 340 1944.5 333L2000 326L2000 451L1944.5 451C1889 451 1778 451 1666.8 451C1555.7 451 1444.3 451 1333.2 451C1222 451 1111 451 1000 451C889 451 778 451 666.8 451C555.7 451 444.3 451 333.2 451C222 451 111 451 55.5 451L0 451Z" fill="#c62368"></path></svg>